<svg preserveAspectRatio="none" width="100%" height="100%" overflow="visible" style="display: block;" viewBox="0 0 16 16" fill="none" xmlns="http://www.w3.org/2000/svg">
<g id="ep:arrow-down">
<path id="Vector" d="M12.998 5.326L8 10.198L3.002 5.326C2.91271 5.23877 2.79283 5.18993 2.668 5.18993C2.54317 5.18993 2.42329 5.23877 2.334 5.326C2.29076 5.36836 2.25641 5.41893 2.23296 5.47474C2.20951 5.53054 2.19743 5.59047 2.19743 5.651C2.19743 5.71153 2.20951 5.77146 2.23296 5.82726C2.25641 5.88307 2.29076 5.93364 2.334 5.976L7.651 11.16C7.74437 11.251 7.86961 11.302 8 11.302C8.13039 11.302 8.25563 11.251 8.349 11.16L13.666 5.977C13.7095 5.9346 13.7442 5.88391 13.7678 5.82792C13.7914 5.77193 13.8036 5.71177 13.8036 5.651C13.8036 5.59023 13.7914 5.53007 13.7678 5.47408C13.7442 5.41809 13.7095 5.3674 13.666 5.325C13.5767 5.23777 13.4568 5.18893 13.332 5.18893C13.2072 5.18893 13.0873 5.23777 12.998 5.325V5.326Z" fill="var(--fill-0, #B2B2B2)"/>
</g>
</svg>
